<?xml version="1.0" encoding="UTF-8"?>
<svg id="Layer_1" data-name="Layer 1" xmlns="http://www.w3.org/2000/svg" viewBox="0 0 512 512">
  <defs>
    <style>
      .cls-1 {
        fill: #ee863d;
        stroke-width: 0px;
      }
    </style>
  </defs>
  <path class="cls-1" d="M42.21,373.9c-13.18-6.29-23.51-15.67-30.99-28.14-7.48-12.47-11.22-27.48-11.22-45.06v-7.84h63.76v7.84c0,6.65,1.96,11.75,5.88,15.32,3.92,3.56,9.79,5.34,17.63,5.34s13.41-1.78,17.45-5.34c4.03-3.56,6.06-8.67,6.06-15.32v-172.04h63.4v172.75c0,17.58-3.74,32.54-11.22,44.88-7.48,12.35-17.75,21.61-30.81,27.78-13.06,6.17-28.02,9.26-44.88,9.26s-31.88-3.15-45.06-9.44Z"/>
  <path class="cls-1" d="M512,128.66l-69.81,249.33h-63.76l-28.49-103.65-28.5,103.65h-63.76l-69.81-249.33h66.61l39.89,159.21,31.6-159.21h52.97l28.34,154.58,38.11-154.58h66.61Z"/>
</svg>